<svg xmlns="http://www.w3.org/2000/svg" xmlns:xlink="http://www.w3.org/1999/xlink" width="500" zoomAndPan="magnify" viewBox="0 0 375 374.999991" height="500" preserveAspectRatio="xMidYMid meet" version="1.0"><defs><clipPath id="ba87a4111a"><path d="M 44.734375 81.851562 L 330.484375 81.851562 L 330.484375 293.351562 L 44.734375 293.351562 Z M 44.734375 81.851562 " clip-rule="nonzero"/></clipPath></defs><g clip-path="url(#ba87a4111a)"><path fill="#d4af37" d="M 260.449219 224.441406 L 200.722656 284.167969 L 258.121094 172.871094 Z M 263.246094 221.640625 L 260.800781 168.675781 L 324.722656 160.167969 Z M 262.550781 226.480469 L 314.058594 228.871094 L 202.761719 286.265625 Z M 318.3125 226.132812 L 265.347656 223.683594 L 326.820312 162.207031 Z M 258.003906 166.695312 L 193.847656 291.160156 L 193.789062 291.160156 L 193.789062 291.394531 C 193.78125 291.472656 193.78125 291.546875 193.789062 291.625 C 193.78125 291.703125 193.78125 291.78125 193.789062 291.859375 L 193.789062 292.269531 L 193.90625 292.269531 L 194.082031 292.5 L 194.3125 292.675781 L 194.546875 292.792969 L 195.769531 292.792969 L 320.238281 228.925781 L 320.292969 228.925781 L 320.46875 228.808594 L 320.527344 228.808594 L 320.761719 228.578125 L 320.875 228.34375 L 320.875 228.050781 L 330.257812 158.363281 L 330.257812 158.300781 C 330.265625 158.226562 330.265625 158.148438 330.257812 158.070312 L 330.257812 157.664062 L 330.144531 157.488281 L 330.082031 157.488281 L 329.910156 157.253906 L 329.675781 157.082031 L 329.617188 157.082031 L 329.445312 156.960938 L 328.742188 156.960938 L 259.109375 165.9375 L 258.761719 165.9375 L 258.527344 166.054688 L 258.46875 166.054688 L 258.234375 166.285156 L 258.179688 166.285156 L 258.0625 166.519531 Z M 109.703125 223.683594 L 56.738281 226.132812 L 48.171875 162.207031 Z M 111.746094 221.640625 L 50.269531 160.167969 L 114.191406 168.675781 Z M 114.542969 224.441406 L 116.929688 172.929688 L 174.328125 284.226562 Z M 172.230469 286.265625 L 60.933594 228.871094 L 112.441406 226.480469 Z M 44.734375 158.246094 L 44.734375 158.300781 L 53.996094 227.820312 L 53.996094 228.226562 L 54.117188 228.460938 L 54.347656 228.695312 L 54.40625 228.695312 L 54.582031 228.808594 L 54.640625 228.808594 L 179.222656 293.140625 L 180.445312 293.140625 L 180.679688 293.023438 L 180.910156 292.851562 L 181.085938 292.617188 L 181.085938 292.207031 C 181.09375 292.132812 181.09375 292.054688 181.085938 291.976562 C 181.09375 291.898438 181.09375 291.820312 181.085938 291.742188 L 181.085938 291.511719 L 181.027344 291.511719 L 116.988281 166.695312 L 116.871094 166.460938 L 116.8125 166.460938 L 116.582031 166.226562 L 116.523438 166.226562 L 116.289062 166.113281 L 115.941406 166.113281 L 46.367188 156.730469 L 45.667969 156.730469 L 45.492188 156.847656 L 45.433594 156.847656 L 45.199219 157.019531 L 45.023438 157.253906 L 44.910156 157.253906 L 44.792969 157.429688 L 44.792969 157.835938 C 44.753906 157.96875 44.734375 158.105469 44.734375 158.246094 Z M 186.039062 178.230469 L 186.039062 262.78125 L 147.929688 143.445312 Z M 186.039062 174.269531 L 146.824219 138.550781 L 186.039062 87.386719 Z M 188.953125 174.269531 L 188.953125 87.328125 L 228.167969 138.492188 Z M 188.953125 178.230469 L 227.0625 143.503906 L 188.953125 262.78125 Z M 143.503906 138.199219 L 143.503906 138.433594 C 143.492188 138.53125 143.492188 138.628906 143.503906 138.726562 L 143.503906 138.957031 L 186.097656 272.335938 L 186.097656 272.570312 L 186.332031 272.570312 L 186.507812 272.746094 L 186.679688 272.921875 L 188.371094 272.921875 L 188.722656 272.570312 L 188.777344 272.570312 L 188.777344 272.335938 L 231.375 138.957031 L 231.375 138.726562 C 231.382812 138.628906 231.382812 138.53125 231.375 138.433594 L 231.375 138.082031 L 231.257812 137.90625 L 231.199219 137.90625 L 188.660156 82.144531 L 188.601562 82.144531 L 188.488281 81.96875 L 188.371094 81.96875 L 188.195312 81.851562 L 186.796875 81.851562 L 186.621094 81.96875 L 186.507812 81.96875 L 186.390625 82.144531 L 186.332031 82.144531 L 143.734375 137.792969 L 143.675781 137.792969 L 143.5625 137.96875 L 143.5625 138.082031 L 143.503906 138.199219 " fill-opacity="1" fill-rule="nonzero"/></g></svg>